# xmcd
#
# Track frame offsets:
#	150
#	16800
#	28642
#	42557
#	56050
#	69837
#	85455
#	96250
#	112442
#	129090
#	142017
#	161437
#	174260
#	184407
#	199422
#	211385
#
# Disc length: 3095 seconds
#
# Revision: 1
# Processed by: cddbd v1.5PL3 Copyright (c) Steve Scherf et al.
# Submitted via: EasyCDDAExtractor 7.0.5.4
#
DISCID=e90c1510
DTITLE=Elkie Brooks - Anthology. Hold the Dream (2)
DYEAR=2000
DGENRE=Vocal
TTITLE0=All Night Long
TTITLE1=What Kind of Man Are You?
TTITLE2=Cry Me a River
TTITLE3='Round Midnight
TTITLE4=Black Coffee
TTITLE5=Save Your Love for Me
TTITLE6=Don't Smoke in Bed
TTITLE7=Here's That Rainy Day
TTITLE8=I Ain't Got Nothin' but the Blues
TTITLE9=Since I Fell for You
TTITLE10=Baby, What You Want Me to Do?
TTITLE11=I'd Rather Go Blind
TTITLE12=Bad Bad Whiskey
TTITLE13=Me and My Gin
TTITLE14=Trouble in Mind
TTITLE15=Please Send Me Someone to Love
EXTD=
EXTT0=
EXTT1=
EXTT2=
EXTT3=
EXTT4=
EXTT5=
EXTT6=
EXTT7=
EXTT8=
EXTT9=
EXTT10=
EXTT11=
EXTT12=
EXTT13=
EXTT14=
EXTT15=
PLAYORDER=
